<svg xmlns="http://www.w3.org/2000/svg" xmlns:xlink="http://www.w3.org/1999/xlink" version="1.1" width="1000" height="1000" viewBox="0 0 1000 1000" xml:space="preserve">
<desc>Created with Fabric.js 3.5.0</desc>
<defs>
</defs>
<rect x="0" y="0" width="100%" height="100%" fill="#ffffff"/>
<g transform="matrix(6.6778 0 0 6.6651 80.5 80.1146)" id="987258">
<path style="stroke: none; stroke-width: 1; stroke-dasharray: none; stroke-linecap: butt; stroke-dashoffset: 0; stroke-linejoin: miter; stroke-miterlimit: 4; is-custom-font: none; font-file-url: none; fill: rgb(0,0,0); fill-rule: nonzero; opacity: 1;" vector-effect="non-scaling-stroke" transform=" translate(-12, -12.005)" d="M 4.37 18.34 c -0.9 -0.09 -1.8 -0.26 -2.68 -0.5 l -0.08 -0.02 l 0.02 -0.08 c 0.26 -0.85 0.59 -1.68 0.98 -2.47 l 0.04 -0.08 l 0.07 0.04 c 0.59 0.33 1.22 0.63 1.85 0.89 l 0.06 0.02 l -0.01 0.06 c -0.1 0.67 -0.15 1.36 -0.17 2.05 v 0.09 h -0.08 z M 6.31 6.23 v -0.02 c -0.52 0.01 -1.04 0.04 -1.55 0.1 c 0.06 0.53 0.16 1.05 0.27 1.56 c 0.36 -0.6 0.79 -1.15 1.28 -1.64 z M 4.46 18.95 v -0.07 l -0.07 -0.01 c -0.76 -0.07 -1.53 -0.2 -2.29 -0.38 l -0.2 -0.05 l 0.11 0.18 c 0.69 1.04 1.53 1.96 2.5 2.74 l 0.16 0.13 l -0.03 -0.2 c -0.11 -0.8 -0.17 -1.59 -0.18 -2.34 z M 8.17 0.7 c -0.93 0.32 -1.81 0.75 -2.62 1.28 c 0.61 0.11 1.22 0.25 1.81 0.43 c 0.24 -0.59 0.51 -1.15 0.81 -1.71 z m 3.87 -0.64 c -0.46 0 -0.91 0.03 -1.36 0.08 c 0.63 0.44 1.24 0.92 1.81 1.45 l 0.48 0.44 l -0.47 0.45 c -0.39 0.37 -0.76 0.77 -1.12 1.2 l -0.02 0.02 s -0.07 0.08 -0.18 0.21 c 0.28 -0.03 0.57 -0.05 0.86 -0.05 c 4.49 0 8.14 3.64 8.14 8.14 c 0 4.49 -3.64 8.14 -8.14 8.14 c -1.56 0 -3.02 -0.44 -4.25 -1.2 c -0.61 0.07 -1.22 0.1 -1.84 0.1 c -0.29 0 -0.57 -0.01 -0.86 -0.02 c 0.02 0.93 0.11 1.88 0.26 2.88 c 1.91 1.29 4.21 2.05 6.69 2.05 c 6.6 0 11.94 -5.35 11.94 -11.94 c 0 -6.6 -5.34 -11.95 -11.94 -11.95 z m -1.58 2.82 c 0.24 -0.28 0.48 -0.55 0.73 -0.82 c -0.56 -0.48 -1.15 -0.91 -1.77 -1.3 c -0.38 0.64 -0.71 1.31 -0.99 1.99 c 0.54 0.2 1.06 0.43 1.58 0.68 c 0.23 -0.31 0.4 -0.49 0.45 -0.55 z M 2.35 9.7 l 0.05 0.07 l 0.07 -0.05 c 0.55 -0.4 1.13 -0.77 1.73 -1.1 l 0.06 -0.02 l -0.02 -0.07 c -0.18 -0.67 -0.32 -1.37 -0.41 -2.08 l -0.01 -0.08 l -0.08 0.02 c -0.88 0.16 -1.76 0.4 -2.6 0.7 l -0.08 0.03 l 0.03 0.08 c 0.35 0.86 0.77 1.7 1.26 2.5 z m -0.14 1.15 l -0.07 0.05 C 1.5 11.42 0.89 12 0.33 12.62 l -0.06 0.06 l 0.06 0.05 c 0.62 0.54 1.29 1.04 1.99 1.48 l 0.07 0.05 l 0.04 -0.07 c 0.31 -0.56 0.67 -1.11 1.05 -1.64 l 0.04 -0.05 l -0.04 -0.05 c -0.44 -0.49 -0.85 -1 -1.23 -1.54 l -0.04 -0.06 z m 4.69 7.53 l 0.21 -0.01 l -0.16 -0.13 c -0.64 -0.52 -1.19 -1.13 -1.64 -1.83 v -0.02 l -0.13 -0.06 l -0.02 0.11 c -0.08 0.6 -0.13 1.22 -0.14 1.86 v 0.08 h 0.08 c 0.28 0.02 0.57 0.02 0.85 0.02 c 0.31 0.01 0.63 0 0.95 -0.02 z M 6.5 5.19 c 0.13 -0.59 0.29 -1.17 0.48 -1.74 c -0.75 -0.21 -1.52 -0.37 -2.29 -0.48 c -0.07 0.78 -0.08 1.56 -0.03 2.33 c 0.61 -0.07 1.23 -0.1 1.84 -0.11 z m 1.15 -0.04 c 0.52 -0.33 1.08 -0.61 1.67 -0.82 c -0.42 -0.19 -0.84 -0.37 -1.28 -0.53 c -0.15 0.44 -0.28 0.9 -0.39 1.35 z m -5.55 9.7 l -0.06 -0.04 c -0.62 -0.39 -1.21 -0.82 -1.77 -1.28 l -0.16 -0.13 l 0.03 0.21 c 0.15 1.15 0.47 2.26 0.94 3.32 l 0.08 0.19 l 0.07 -0.19 c 0.23 -0.68 0.52 -1.35 0.84 -1.99 l 0.03 -0.09 z M 3.63 3.52 c -0.71 0.71 -1.34 1.5 -1.85 2.37 c 0.62 -0.18 1.24 -0.33 1.87 -0.44 c -0.04 -0.64 -0.05 -1.28 -0.02 -1.93 z m 0.36 8.38 l 0.01 -0.21 c 0.03 -0.73 0.15 -1.44 0.37 -2.13 l 0.06 -0.2 l -0.18 0.1 c -0.47 0.27 -0.93 0.57 -1.37 0.89 l -0.07 0.05 l 0.05 0.07 c 0.31 0.44 0.64 0.87 0.99 1.28 l 0.14 0.15 z m 0.08 1.22 l -0.03 -0.2 l -0.12 0.18 c -0.33 0.47 -0.64 0.95 -0.92 1.45 l -0.04 0.07 l 0.07 0.04 c 0.5 0.28 1.03 0.54 1.56 0.77 l 0.19 0.08 l -0.09 -0.19 c -0.31 -0.7 -0.52 -1.44 -0.62 -2.2 z m -2.33 -2.85 l 0.06 -0.05 l -0.04 -0.06 c -0.37 -0.6 -0.71 -1.23 -1.01 -1.87 l -0.09 -0.18 l -0.06 0.2 C 0.25 9.39 0.06 10.52 0.03 11.66 l -0.01 0.21 l 0.15 -0.15 c 0.49 -0.52 1.02 -1.02 1.57 -1.45 z" stroke-linecap="round"/>
</g>
</svg>